<svg width="232" height="173" viewBox="0 0 232 173" fill="none" xmlns="http://www.w3.org/2000/svg">
<path d="M62.3205 102.966C59.403 102.778 56.6308 101.823 54.3998 100.237C52.1689 98.651 50.5932 96.5149 49.8978 94.1339C49.2024 91.7529 49.4228 89.2487 50.5275 86.9789C51.6323 84.7091 53.5649 82.7897 56.0495 81.4948C56.5781 78.0417 58.5908 74.8683 61.7107 72.5684C64.8307 70.2686 68.8441 69 73 69C77.1559 69 81.1693 70.2686 84.2893 72.5684C87.4092 74.8683 89.4219 78.0417 89.9505 81.4948C92.4351 82.7897 94.3677 84.7091 95.4725 86.9789C96.5772 89.2487 96.7976 91.7529 96.1022 94.1339C95.4068 96.5149 93.8311 98.651 91.6002 100.237C89.3692 101.823 86.597 102.778 83.6795 102.966V103H62.3205V102.966ZM75.1359 88.6859H81.5436L73 79.7395L64.4564 88.6859H70.8641V95.8429H75.1359V88.6859Z" fill="#4D4D4D"/>
<path d="M55.7441 120.675V126.439C55.7441 127.116 55.8711 127.679 56.125 128.127C56.5016 128.805 57.1364 129.143 58.0293 129.143C59.0999 129.143 59.8278 128.777 60.2129 128.045C60.4202 127.647 60.5239 127.112 60.5239 126.439V120.675H61.8062V125.912C61.8062 127.059 61.6517 127.941 61.3428 128.559C60.7757 129.685 59.7051 130.248 58.1309 130.248C56.5566 130.248 55.4881 129.685 54.9253 128.559C54.6164 127.941 54.4619 127.059 54.4619 125.912V120.675H55.7441ZM66.4844 129.232C67.0176 129.232 67.4598 129.01 67.811 128.565C68.1665 128.117 68.3442 127.448 68.3442 126.56C68.3442 126.018 68.266 125.552 68.1094 125.163C67.8132 124.414 67.2715 124.04 66.4844 124.04C65.693 124.04 65.1514 124.435 64.8594 125.227C64.7028 125.65 64.6245 126.187 64.6245 126.839C64.6245 127.364 64.7028 127.81 64.8594 128.178C65.1556 128.881 65.6973 129.232 66.4844 129.232ZM63.5264 123.233H64.6372V124.135C64.8657 123.826 65.1154 123.587 65.3862 123.417C65.7713 123.164 66.2241 123.037 66.7446 123.037C67.5148 123.037 68.1686 123.333 68.7061 123.925C69.2435 124.514 69.5122 125.356 69.5122 126.452C69.5122 127.933 69.125 128.991 68.3506 129.625C67.8597 130.028 67.2884 130.229 66.6367 130.229C66.1247 130.229 65.6951 130.116 65.3481 129.892C65.145 129.765 64.9186 129.547 64.6689 129.238V132.71H63.5264V123.233ZM70.8833 120.675H72.0259V130H70.8833V120.675ZM76.4438 129.264C77.2013 129.264 77.7197 128.978 77.999 128.407C78.2826 127.831 78.4243 127.192 78.4243 126.49C78.4243 125.855 78.3228 125.339 78.1196 124.941C77.798 124.315 77.2437 124.001 76.4565 124.001C75.7583 124.001 75.2505 124.268 74.9331 124.801C74.6157 125.334 74.457 125.978 74.457 126.731C74.457 127.455 74.6157 128.058 74.9331 128.54C75.2505 129.022 75.7541 129.264 76.4438 129.264ZM76.4883 123.005C77.3643 123.005 78.1048 123.297 78.71 123.881C79.3151 124.465 79.6177 125.324 79.6177 126.458C79.6177 127.554 79.3511 128.46 78.8179 129.175C78.2847 129.89 77.4574 130.248 76.3359 130.248C75.4007 130.248 74.658 129.932 74.1079 129.302C73.5578 128.667 73.2827 127.816 73.2827 126.75C73.2827 125.607 73.5726 124.698 74.1523 124.021C74.7321 123.343 75.5107 123.005 76.4883 123.005ZM81.8584 128.191C81.8584 128.521 81.979 128.781 82.2202 128.972C82.4614 129.162 82.7471 129.257 83.0771 129.257C83.4792 129.257 83.8685 129.164 84.2451 128.978C84.8799 128.669 85.1973 128.163 85.1973 127.461V126.541C85.0576 126.629 84.8778 126.703 84.6577 126.763C84.4377 126.822 84.2218 126.864 84.0103 126.89L83.3184 126.979C82.9036 127.034 82.5926 127.12 82.3853 127.239C82.034 127.438 81.8584 127.755 81.8584 128.191ZM84.626 125.88C84.8883 125.847 85.064 125.736 85.1528 125.55C85.2036 125.449 85.229 125.303 85.229 125.112C85.229 124.723 85.0894 124.442 84.8101 124.268C84.535 124.09 84.1393 124.001 83.623 124.001C83.0264 124.001 82.6032 124.162 82.3535 124.484C82.2139 124.662 82.1229 124.926 82.0806 125.277H81.0142C81.0353 124.439 81.3062 123.858 81.8267 123.532C82.3514 123.202 82.9587 123.037 83.6484 123.037C84.4482 123.037 85.0978 123.189 85.5972 123.494C86.0923 123.798 86.3398 124.272 86.3398 124.916V128.832C86.3398 128.951 86.3631 129.046 86.4097 129.118C86.4604 129.19 86.5641 129.226 86.7207 129.226C86.7715 129.226 86.8286 129.223 86.8921 129.219C86.9556 129.211 87.0233 129.2 87.0952 129.188V130.032C86.9175 130.083 86.7821 130.114 86.689 130.127C86.5959 130.14 86.4689 130.146 86.3081 130.146C85.9146 130.146 85.6289 130.006 85.4512 129.727C85.3581 129.579 85.2925 129.369 85.2544 129.099C85.0216 129.403 84.6873 129.668 84.2515 129.892C83.8156 130.116 83.3353 130.229 82.8105 130.229C82.18 130.229 81.6637 130.038 81.2617 129.657C80.8639 129.272 80.665 128.792 80.665 128.216C80.665 127.586 80.8618 127.097 81.2554 126.75C81.6489 126.403 82.1652 126.189 82.8042 126.109L84.626 125.88ZM88.9424 126.68C88.9424 127.408 89.0968 128.017 89.4058 128.508C89.7147 128.999 90.2098 129.245 90.8911 129.245C91.4201 129.245 91.8538 129.018 92.1924 128.565C92.5352 128.108 92.7065 127.455 92.7065 126.604C92.7065 125.745 92.5309 125.11 92.1797 124.7C91.8285 124.285 91.3947 124.078 90.8784 124.078C90.3029 124.078 89.8353 124.298 89.4756 124.738C89.1201 125.178 88.9424 125.825 88.9424 126.68ZM90.6626 123.081C91.1831 123.081 91.619 123.191 91.9702 123.411C92.1733 123.538 92.404 123.76 92.6621 124.078V120.644H93.7603V130H92.7319V129.054C92.4653 129.473 92.1501 129.776 91.7861 129.962C91.4222 130.148 91.0054 130.241 90.5356 130.241C89.7782 130.241 89.1222 129.924 88.5679 129.289C88.0135 128.65 87.7363 127.802 87.7363 126.744C87.7363 125.753 87.9881 124.896 88.4917 124.173C88.9995 123.445 89.7231 123.081 90.6626 123.081Z" fill="black"/>
<rect x="1.5" y="24.5" width="147" height="147" rx="22.5" stroke="#4D4D4D" stroke-width="3" stroke-dasharray="20 12"/>
</svg>
