<?xml version="1.0" encoding="utf-8"?>

<!-- Uploaded to: SVG Repo, www.svgrepo.com, Generator: SVG Repo Mixer Tools -->
<svg id="Layer_1" data-name="Layer 1" xmlns="http://www.w3.org/2000/svg" viewBox="0 0 95.84 122.88"><title>ballot-box-voting</title><path d="M25.46,87.48h5.87L27,104.87H18.89L14.58,87.48h5.87l2.36,11h.25l2.4-11ZM42,53a1.74,1.74,0,1,1,0-3.48h6.71a1.74,1.74,0,0,1,0,3.48Zm3.94-30c0-3.24.12-6,4.18-7a1.53,1.53,0,0,1-.15-.63v-.57h-.07l.69-3.76a5.18,5.18,0,0,1,4-2.72,1.7,1.7,0,0,1,0-.24V6.08a2.07,2.07,0,0,1,0-.35C55.54,0,61.22.08,65.8.13H67L72.27,0h.16c4.5.21,7.42,2,10.79,4,2.36,1.47,9.39,2.45,11.1,4.9a8.44,8.44,0,0,1,1.52,4.76V31.51a4.68,4.68,0,0,1-2.29,4.21c-1.22.84-7.8,1.38-10,1.67a161.08,161.08,0,0,1-16.43,9.47,13.3,13.3,0,0,1-3.75,1.27v2.69H79.85a1.74,1.74,0,0,1,1.6,1l9.33,18a1.86,1.86,0,0,1,.19.89l.15,50.38a1.73,1.73,0,0,1-1.73,1.73H1.74A1.74,1.74,0,0,1,0,121.14V70.67H0v0H0v0H0v0H0v0H0v0H0v0H0v-.05H0v0H0v0H0v0H0v0h0v0h0v0h0v0h0v0h0v0h0v0h0l0,0h0v0h0v0h0v0h0l0,0h0v0h0l9.48-18a1.71,1.71,0,0,1,1.53-.93H27.36V34.32a2.15,2.15,0,0,1,2.16-2.16h5.6a6.54,6.54,0,0,1,1.47-6c4.16-4.8,9.3-1.72,9.36-3.1Zm14,25.06c-5.24-1-7.56-6.69-3.15-10.9H43.3a9.72,9.72,0,0,1-5.7-1.58H30.84V59.75H59.92V48.11Zm21.8-13.36a1.53,1.53,0,0,1,.7-.26c1.88-.23,8.15-.63,9-1.21a1.87,1.87,0,0,0,1-1.68V13.81a5.38,5.38,0,0,0-1-3.08C90.2,9,83.09,7.81,81.25,6.7c-7.31-4.46-7.19-3.33-15-3.48-3.39,0-7.6-.1-8.12,3v2c1,0,1.93.08,2.87.13s1.65.11,2.43.11a1.5,1.5,0,1,1,0,3c-.79,0-1.68-.05-2.62-.11-3.21-.2-6.87-.44-7.34,2.11v2c0,.11,0,.22,0,.33,1.16,0,2.34,0,3.51.12.85.06,1.65.11,2.43.11a1.5,1.5,0,1,1,0,3c-.79,0-1.68-.05-2.62-.11-3.21-.21-6.87-.44-7.33,2.12v2a1.68,1.68,0,0,1-.05.4h5.85a1.5,1.5,0,0,1,0,3H43.48c-3.14,0-6.67,2-5,5.34a3.35,3.35,0,0,0,.21.36h0l0,0h0l0,0v0l0,0,0,0,0,0,0,0h0l0,0,0,0,0,0v0l0,0h0l0,0h0l0,0h0l0,.05h0l0,0h0l.05.05,0,0,0,0,0,0,0,0,0,0,0,0,0,0,0,0,0,0,0,0h0l.06,0h0l.06,0h0l.06,0h0l.06,0h0l0,0,0,0,0,0,0,0h0l.14.07h0l.05,0h0l.06,0h0l.07,0h0l.08,0h0l.07,0h0l.06,0h0l.06,0h0l0,0,0,0h0l.05,0h0l.06,0h0l.06,0h0l.07,0h0l.08,0h0l.09,0h0l.08,0h0l.07,0h0l.08,0h.35l.08,0h25c1.95,0,2,2.38,0,2.39a20,20,0,0,0-3.72.48l-.07,0h-.06l-.07,0-.06,0h-.06l-.07,0h-.19l-.06,0H62.7l-.06,0h0l-.1,0-.07,0h-.06l-.06,0-.06,0-.05,0h0l-.05,0-.06,0-.06,0h0l-.06,0-.06,0h0l0,0-.06,0-.06,0,0,0-.06,0-.06,0,0,0h0l-.06,0,0,0h0l0,0-.06,0h0l0,0-.06,0-.05,0,0,0,0,0h0l0,0h0l-.08,0h0l0,0h-.05l0,0h0l0,0-.05,0,0,0-.05,0,0,0h0l0,0-.05,0h0l0,0,0,0,0,0,0,0,0,0h0l0,0h0l-.08,0h0l0,0h0l0,0,0,0a4.78,4.78,0,0,0-1,.93c-1.35,1.72-1.27,4.27,1,5.16l.12,0h0l0,0h0l.13,0h0l.13,0h0l.09,0h.09l.09,0h.07l.12,0H61l.15,0h1.06l.44,0h.26l.2,0h.06l.21,0h.07l.38-.07c4.17-.87,9.36-3.9,17.94-10ZM27.36,54.3h-15L4.62,68.94H86.39L78.8,54.3H63.4v5.45h3.83a1.74,1.74,0,1,1,0,3.48H24.43a1.74,1.74,0,0,1,0-3.48h2.94V54.3ZM3.48,72.43v47H87.64l-.14-47Zm32-27.58a1.74,1.74,0,0,1,0-3.48H48.71a1.74,1.74,0,0,1,0,3.48ZM31.89,96.19c0-3.17.59-5.49,1.78-6.94s3.33-2.19,6.42-2.19,5.24.73,6.43,2.19S48.3,93,48.3,96.19a18,18,0,0,1-.37,4,7.13,7.13,0,0,1-1.3,2.81,5.19,5.19,0,0,1-2.53,1.75,12.41,12.41,0,0,1-4,.56,12.39,12.39,0,0,1-4-.56A5.19,5.19,0,0,1,33.56,103a7.13,7.13,0,0,1-1.3-2.81,18,18,0,0,1-.37-4Zm6-2.89v7.23h2.31a3.91,3.91,0,0,0,1.65-.26c.35-.18.52-.58.52-1.21V91.82H40a3.72,3.72,0,0,0-1.63.27c-.34.17-.51.58-.51,1.21Zm24.76-1.37h-4v12.94H53V91.93H49V87.48H62.63v4.45Zm12.66,6.38H69.73v2.11h6.82v4.45H64.16V87.48H76.41l-.7,4.45h-6v2.34h5.56v4Z"/></svg>
